<?xml version="1.0" encoding="utf-8"?>
<!-- Generator: Adobe Illustrator 26.0.0, SVG Export Plug-In . SVG Version: 6.00 Build 0)  -->
<svg version="1.1" id="Layer_1" xmlns="http://www.w3.org/2000/svg" xmlns:xlink="http://www.w3.org/1999/xlink" x="0px" y="0px"
	 viewBox="0 0 278.2 243.8" style="enable-background:new 0 0 278.2 243.8;" xml:space="preserve">
<style type="text/css">
	.st0{fill:#ECE5DD;stroke:#ECE5DD;stroke-miterlimit:10;}
	.st1{fill:none;stroke:#ECE5DD;stroke-width:12;stroke-miterlimit:10;}
	.st2{fill:none;}
	.st3{fill:none;stroke:#ECE5DD;stroke-width:7;stroke-miterlimit:10;}
	.st4{fill:none;stroke:#ECE5DD;stroke-width:8;stroke-miterlimit:10;}
	.st5{fill:url(#SVGID_1_);}
</style>
<polygon class="st0" points="98.7,190.3 80.3,223.4 198.5,222.8 179.7,189.9 "/>
<polygon class="st0" points="180,51.8 198.3,21.4 81.1,22 99.7,52.2 "/>
<polygon class="st0" points="180.5,52.1 197.6,21.1 255.7,122.8 220.3,121.8 "/>
<polygon class="st0" points="98.6,191.3 81.4,222.4 23.4,120.8 58.9,121.7 "/>
<polygon class="st0" points="219.2,121.8 256,122.1 198.3,222.1 179.6,190.3 "/>
<polygon class="st0" points="59.5,121.6 24,122.4 82.6,20.9 99.6,52.1 "/>
<polygon class="st1" points="205.1,236.4 73.6,236.4 7.8,122.5 73.6,8.6 205.1,8.6 270.9,122.5 "/>
<polygon class="st2" points="199.3,226.8 79,227.3 19.3,122.9 80,17.8 200.3,17.2 260,121.7 "/>
<polygon class="st3" points="177,187.7 100.2,187.9 61.9,121.2 100.5,54.4 177.3,54.2 215.6,120.8 "/>
<polygon class="st4" points="170.5,147.8 140.3,174 110.1,147.8 110.1,95.4 140.3,69.2 170.5,95.4 "/>
<g>
	<g>
		
			<linearGradient id="SVGID_1_" gradientUnits="userSpaceOnUse" x1="-162.9162" y1="239.125" x2="-158.09" y2="239.125" gradientTransform="matrix(1 0 0 -1 0 318.25)">
			<stop  offset="0" style="stop-color:#1E1E1E"/>
			<stop  offset="0.8911" style="stop-color:#898989"/>
			<stop  offset="1" style="stop-color:#FFFFFF"/>
		</linearGradient>
		<path class="st5" d="M-160.5,81.6c3.2,0,3.2-5,0-5C-163.7,76.6-163.7,81.6-160.5,81.6L-160.5,81.6z"/>
	</g>
</g>
</svg>
